# xmcd
#
# Track frame offsets: 
#        150
#        11144
#        20571
#        35888
#        47010
#        58056
#
# Disc length: 894 seconds
#
# Revision: 0
# Processed by: cddbd v1.5.2PL0 Copyright (c) Steve Scherf et al.
# Submitted via: ExactAudioCopy v0.99pb4
#
DISCID=4f037c06
DTITLE=Beagle Brothers - The Notorious Country Hell Hounds
DYEAR=2007
DGENRE=Country
TTITLE0=TJ Town
TTITLE1=Doggonit, I'm Busted
TTITLE2=Come Break My Heart Again
TTITLE3=When I Hit That Bottle
TTITLE4=Cemetery Shuffle
TTITLE5=All My Friends
EXTD=
EXTT0=
EXTT1=
EXTT2=
EXTT3=
EXTT4=
EXTT5=
PLAYORDER=
